<?xml version="1.0" standalone="no"?>
<!DOCTYPE svg PUBLIC "-//W3C//DTD SVG 20010904//EN"
 "http://www.w3.org/TR/2001/REC-SVG-20010904/DTD/svg10.dtd">
<svg version="1.0" xmlns="http://www.w3.org/2000/svg"
 width="1280.000000pt" height="1280.000000pt" viewBox="0 0 1280.000000 1280.000000"
 preserveAspectRatio="xMidYMid meet">
<metadata>
Created by potrace 1.14, written by Peter Selinger 2001-2017
</metadata>
<g transform="translate(0.000000,1280.000000) scale(0.100000,-0.100000)"
fill="#000000" stroke="none">
<path d="M5611 12780 c-60 -28 -178 -119 -273 -213 -85 -84 -218 -246 -218
-266 0 -6 -4 -11 -8 -11 -5 0 -15 -12 -23 -27 -8 -15 -28 -50 -46 -77 -18 -27
-30 -53 -27 -58 3 -4 0 -8 -5 -8 -6 0 -11 -6 -11 -14 0 -7 -7 -19 -15 -26 -9
-7 -14 -18 -12 -24 2 -6 -2 -17 -10 -24 -7 -8 -11 -18 -8 -23 4 -5 2 -9 -3 -9
-9 0 -19 -23 -28 -64 -3 -11 -8 -24 -13 -30 -5 -6 -19 -40 -31 -76 -12 -36
-24 -72 -27 -80 -4 -8 -7 -17 -7 -20 -1 -3 -5 -11 -10 -18 -4 -7 -5 -16 -2
-19 3 -3 2 -11 -4 -17 -5 -7 -12 -27 -15 -45 -3 -19 -10 -42 -16 -52 -5 -11
-8 -19 -5 -19 2 0 -2 -24 -10 -52 -13 -50 -18 -71 -30 -142 -3 -16 -6 -32 -8
-35 -2 -3 -7 -31 -11 -61 -4 -30 -10 -76 -14 -102 -5 -26 -8 -64 -7 -83 1 -19
-2 -35 -5 -35 -4 0 -7 -10 -7 -22 0 -13 -3 -52 -6 -88 -3 -36 -8 -123 -11
-193 -2 -70 -7 -132 -10 -137 -3 -5 -1 -11 5 -15 6 -4 8 -10 5 -15 -9 -14 -13
-70 -5 -70 8 0 5 -44 -5 -59 -3 -6 -3 -16 0 -22 4 -6 9 -74 11 -152 2 -78 6
-164 8 -192 3 -27 8 -88 11 -135 4 -47 9 -96 11 -110 3 -14 7 -50 9 -80 3 -30
7 -64 9 -76 3 -12 7 -46 11 -75 6 -52 8 -68 19 -134 3 -16 8 -46 10 -65 3 -19
10 -53 15 -75 5 -22 12 -51 15 -65 10 -44 28 -115 33 -130 4 -8 7 -19 8 -25
14 -58 80 -243 128 -355 6 -14 11 -27 12 -30 7 -29 30 -88 38 -97 5 -7 7 -13
4 -13 -3 0 4 -28 15 -62 20 -65 27 -89 34 -123 2 -11 10 -52 18 -90 19 -97 32
-198 40 -317 3 -37 7 -72 10 -77 4 -5 2 -12 -3 -16 -6 -3 -8 -12 -5 -20 9 -23
10 -175 1 -175 -4 0 -3 -8 2 -19 6 -10 8 -21 4 -24 -3 -3 -7 -43 -9 -89 -5
-116 -10 -161 -30 -313 -4 -36 -14 -93 -30 -180 -4 -27 -27 -137 -41 -205 -3
-14 -6 -34 -7 -45 0 -11 -4 -22 -8 -25 -4 -3 -8 -17 -10 -30 -2 -14 -7 -31
-11 -37 -5 -7 -6 -17 -2 -22 3 -5 0 -13 -6 -16 -5 -4 -8 -13 -5 -21 3 -8 1
-14 -4 -14 -6 0 -9 -3 -8 -7 4 -11 -20 -94 -59 -211 -19 -56 -33 -109 -30
-116 3 -8 3 -16 -1 -18 -4 -2 -15 -32 -25 -68 -25 -93 -24 -91 -40 -136 -9
-23 -23 -57 -33 -75 -10 -19 -18 -36 -19 -39 0 -8 -48 -73 -68 -93 -17 -17
-80 -49 -92 -46 -46 9 -106 35 -134 56 -46 35 -55 47 -85 109 -27 54 -35 101
-41 234 -4 103 -13 206 -20 240 -3 14 -9 50 -15 80 -19 106 -35 166 -74 285
-30 89 -31 92 -75 188 -17 37 -31 72 -31 76 0 5 -7 14 -15 21 -8 7 -12 16 -9
21 3 5 1 9 -4 9 -4 0 -14 16 -22 35 -8 19 -17 35 -22 35 -4 0 -8 5 -8 12 0 13
-51 91 -62 96 -5 2 -8 8 -8 14 0 8 -36 61 -65 95 -5 6 -21 26 -35 44 -47 62
-94 114 -205 222 -123 120 -121 118 -190 173 -27 21 -52 41 -55 44 -31 31
-303 210 -319 210 -6 0 -11 3 -11 8 0 4 -10 12 -23 18 -12 6 -56 28 -97 50
-41 21 -77 39 -80 40 -3 0 -40 17 -83 37 -43 21 -80 37 -83 37 -3 0 -26 10
-52 22 -56 27 -178 32 -205 9 -10 -7 -17 -10 -17 -5 0 13 -71 -70 -82 -96 -16
-41 -17 -93 -1 -136 8 -21 16 -46 18 -54 2 -8 4 -15 5 -15 1 0 4 -13 6 -30 3
-16 7 -37 11 -45 6 -16 14 -110 16 -200 1 -30 7 -58 12 -62 7 -5 6 -8 -1 -8
-11 0 -10 -51 1 -71 5 -8 4 -10 -3 -5 -7 4 -12 2 -12 -3 0 -6 5 -11 11 -11 5
0 7 -5 4 -10 -11 -17 -13 -130 -3 -130 5 0 6 -6 1 -12 -8 -14 -8 -21 -14 -180
-2 -54 -6 -98 -9 -98 -3 0 -5 -24 -5 -52 1 -29 -1 -57 -3 -62 -3 -5 -6 -29 -8
-55 -2 -25 -6 -64 -8 -86 -3 -22 -8 -65 -11 -95 -3 -30 -8 -62 -10 -70 -2 -8
-6 -37 -10 -65 -6 -50 -14 -102 -22 -140 -4 -18 -7 -43 -18 -115 -2 -14 -4
-25 -5 -25 -1 0 -3 -11 -6 -25 -5 -35 -17 -93 -20 -105 -3 -11 -11 -50 -18
-87 -2 -13 -9 -43 -15 -68 -7 -25 -14 -54 -16 -65 -13 -62 -27 -115 -53 -207
-11 -37 -17 -70 -14 -73 3 -3 -1 -5 -8 -5 -7 0 -11 -3 -7 -6 5 -5 -14 -85 -30
-124 -4 -8 -7 -18 -8 -22 -2 -5 -3 -9 -5 -10 -2 -3 -5 -16 -13 -58 -3 -14 -12
-45 -20 -70 -13 -39 -35 -114 -41 -145 -2 -5 -10 -35 -19 -65 -9 -30 -19 -69
-22 -87 -3 -18 -9 -43 -14 -56 -6 -14 -13 -45 -16 -68 -4 -24 -11 -49 -16 -55
-5 -6 -7 -13 -4 -16 3 -3 -1 -32 -9 -64 -8 -32 -17 -75 -20 -95 -3 -20 -8 -42
-10 -50 -3 -8 -7 -30 -10 -49 -3 -19 -8 -45 -10 -56 -2 -12 -7 -37 -10 -55 -3
-19 -9 -56 -14 -84 -5 -27 -10 -57 -10 -65 -1 -8 -4 -31 -8 -50 -3 -19 -7 -51
-9 -70 -1 -19 -4 -35 -5 -35 -1 0 -4 -16 -6 -35 -2 -19 -6 -57 -10 -85 -3 -27
-7 -70 -9 -95 -2 -25 -4 -45 -5 -45 -3 0 -20 -222 -24 -310 -1 -22 -4 -44 -7
-50 -7 -13 -4 -728 4 -780 3 -22 8 -56 11 -75 11 -74 23 -145 26 -145 1 0 3
-16 5 -35 5 -37 12 -73 15 -77 3 -3 4 -7 14 -58 4 -22 14 -58 21 -80 7 -22 25
-78 39 -125 25 -79 58 -165 94 -250 28 -66 105 -225 111 -230 3 -3 7 -12 9
-20 2 -8 10 -22 18 -31 8 -8 14 -19 14 -23 0 -26 225 -342 328 -461 88 -101
287 -296 360 -352 13 -10 40 -33 60 -50 20 -18 40 -33 44 -33 4 0 13 -6 20
-12 23 -22 120 -92 193 -139 39 -25 96 -62 127 -82 31 -20 59 -37 62 -37 4 0
24 -11 46 -25 78 -49 354 -183 490 -237 102 -41 114 -46 120 -46 3 0 30 -10
60 -22 188 -76 611 -189 870 -234 14 -2 37 -7 51 -11 14 -3 44 -8 65 -10 22
-1 39 -4 39 -5 0 -1 14 -3 30 -5 50 -6 100 -14 100 -15 0 -1 18 -3 40 -5 22
-2 60 -6 85 -9 42 -5 87 -10 205 -21 270 -25 848 -25 1125 0 53 5 89 9 210 21
30 3 71 7 90 9 19 2 35 4 35 5 0 1 23 4 50 6 49 4 90 11 90 14 0 1 16 3 35 5
19 2 35 4 35 5 0 1 14 3 30 5 29 3 83 12 129 21 11 2 37 7 56 10 33 5 240 49
285 60 11 2 36 7 55 10 19 3 40 9 45 13 6 4 17 7 25 6 8 -1 22 2 31 6 9 5 27
10 40 13 13 3 39 9 57 15 18 5 35 10 37 10 13 1 62 13 75 18 8 3 20 7 25 9
154 45 254 75 270 83 11 5 52 19 90 32 39 12 90 29 115 39 25 10 99 39 165 65
126 49 138 54 250 105 39 18 76 33 83 33 6 0 12 4 12 8 0 6 30 17 47 17 3 0 9
4 12 9 3 4 67 38 141 75 132 66 210 108 220 118 3 3 12 6 20 8 8 2 22 9 30 16
8 7 62 40 120 75 144 85 144 85 150 91 3 3 37 26 75 52 39 25 80 54 92 64 12
11 38 30 58 44 37 26 49 36 136 110 79 68 228 217 289 290 30 36 58 67 63 68
4 2 7 8 7 13 0 6 9 20 20 32 50 53 233 351 282 457 57 125 73 162 95 220 36
93 99 289 104 325 1 6 5 20 10 33 5 13 11 37 14 55 3 18 8 39 11 48 2 10 7 30
9 45 5 34 13 69 15 69 1 0 3 16 5 35 2 19 6 49 9 65 4 17 9 54 12 84 2 30 7
71 10 90 15 111 21 510 10 656 -11 143 -31 325 -41 380 -3 17 -7 46 -9 65 -4
30 -9 64 -30 182 -10 55 -39 190 -57 263 -10 44 -21 90 -23 102 -3 12 -9 30
-15 41 -6 11 -8 21 -6 24 2 2 -3 26 -11 53 -9 28 -17 61 -20 75 -3 14 -7 32
-11 40 -3 8 -7 17 -8 20 0 3 -4 16 -9 30 -4 14 -19 61 -32 105 -14 44 -28 87
-31 95 -3 8 -7 20 -8 25 -9 38 -138 388 -172 465 -8 19 -19 44 -23 55 -15 38
-60 142 -87 201 -14 32 -27 61 -28 64 -3 9 -66 135 -75 150 -5 8 -35 57 -65
109 -73 122 -155 242 -250 366 -143 185 -212 280 -240 330 -16 28 -35 58 -43
68 -8 9 -11 17 -6 17 5 0 4 4 -2 8 -14 9 -134 257 -134 277 0 8 -4 15 -10 15
-5 0 -10 5 -10 11 0 9 -47 137 -71 194 -14 34 -86 256 -104 320 -9 33 -23 83
-31 110 -8 28 -17 61 -20 75 -3 14 -12 50 -20 80 -8 30 -17 64 -19 75 -8 45
-16 82 -25 115 -5 19 -11 46 -14 60 -3 14 -10 45 -16 69 -6 24 -8 46 -5 49 2
3 0 11 -6 19 -6 7 -9 13 -6 13 3 0 0 19 -5 43 -10 44 -11 51 -22 107 -3 19 -8
44 -10 55 -2 11 -7 40 -10 65 -3 25 -9 59 -12 75 -3 17 -7 46 -9 65 -2 19 -4
35 -5 35 -1 0 -5 23 -14 95 -16 128 -57 184 -154 210 -45 11 -125 5 -130 -11
-2 -5 -7 -7 -11 -5 -12 8 -85 -66 -155 -156 -37 -49 -64 -88 -60 -88 4 0 -1
-7 -12 -15 -10 -8 -14 -15 -9 -15 7 0 7 -3 0 -8 -27 -19 -155 -288 -170 -356
-1 -6 -5 -18 -8 -26 -3 -8 -12 -35 -18 -60 -15 -53 -13 -46 -22 -90 -4 -19 -9
-46 -12 -60 -3 -14 -8 -41 -11 -60 -3 -19 -7 -46 -10 -60 -28 -154 -23 -555 9
-760 14 -85 21 -137 21 -157 1 -13 4 -23 7 -23 3 0 6 -6 7 -12 3 -38 15 -95
42 -203 17 -66 32 -129 35 -140 2 -11 32 -103 65 -205 33 -102 60 -193 60
-202 0 -10 4 -18 9 -18 5 0 8 -6 8 -12 -1 -7 10 -62 25 -123 24 -97 32 -141
44 -220 1 -11 3 -20 4 -20 3 0 9 -38 14 -85 3 -25 8 -65 11 -90 3 -25 7 -86 9
-136 2 -51 5 -96 8 -100 2 -5 3 -40 1 -79 -3 -74 -3 -87 -2 -107 1 -23 -10
-162 -15 -198 -3 -19 -9 -55 -12 -80 -17 -116 -53 -267 -81 -340 -4 -8 -7 -17
-7 -20 -4 -16 -51 -127 -58 -134 -4 -6 -8 -18 -8 -27 0 -10 -3 -19 -7 -21 -5
-1 -19 -25 -33 -53 -56 -110 -201 -302 -221 -290 -5 4 -9 2 -9 -3 0 -6 -13 -9
-30 -8 -16 1 -30 -1 -30 -5 0 -4 -10 -6 -22 -3 -13 2 -36 7 -52 10 -36 6 -81
37 -123 83 -31 33 -119 191 -107 191 4 0 2 6 -3 13 -5 6 -15 32 -22 57 -8 25
-19 61 -27 81 -7 20 -11 39 -8 42 3 3 1 14 -4 24 -9 17 -16 54 -28 143 -3 19
-7 46 -11 60 -3 14 -7 39 -8 55 -3 28 -9 98 -20 210 -3 28 -7 100 -9 162 -3
62 -8 118 -12 124 -4 7 -3 10 2 6 5 -3 7 40 4 105 -3 60 -2 112 3 115 4 2 5 8
3 12 -14 22 2 391 30 686 3 39 7 86 9 105 2 19 7 78 11 130 11 136 6 470 -7
470 -3 0 -5 11 -4 25 2 14 0 25 -3 25 -4 0 -8 15 -9 33 -2 36 -9 80 -18 117
-3 14 -8 35 -11 48 -2 12 -6 32 -9 45 -6 33 -43 173 -60 229 -7 26 -11 48 -8
48 3 0 1 6 -4 13 -5 6 -15 32 -22 57 -7 25 -17 53 -23 64 -5 10 -12 29 -14 43
-13 71 -254 627 -283 653 -3 3 -16 25 -29 50 -39 79 -66 125 -74 128 -4 2 -8
12 -8 23 0 10 -4 19 -8 19 -5 0 -15 12 -23 28 -7 15 -30 53 -51 84 -21 31 -38
60 -38 63 0 3 -9 15 -20 27 -11 12 -20 28 -20 35 0 7 -4 13 -10 13 -5 0 -10 7
-10 15 0 7 -8 19 -17 24 -10 6 -14 11 -10 11 4 0 3 6 -3 13 -6 6 -28 37 -50
67 -22 30 -43 60 -47 65 -5 6 -19 26 -33 45 -13 19 -27 37 -30 40 -4 3 -20 25
-37 50 -17 25 -39 54 -50 65 -10 11 -30 36 -44 55 -15 19 -36 46 -48 60 -28
34 -24 29 -145 179 -59 73 -127 163 -149 200 -23 36 -48 75 -55 86 -6 11 -15
27 -19 35 -4 8 -9 17 -12 20 -11 9 -131 255 -131 268 0 6 -5 12 -10 12 -6 0
-9 3 -9 8 1 4 0 10 -1 15 -1 4 -3 10 -4 15 -1 4 -10 25 -20 47 -10 22 -22 51
-26 65 -5 14 -20 53 -33 88 -14 34 -23 62 -20 62 3 0 0 7 -7 15 -7 8 -9 15 -5
15 4 0 0 11 -9 25 -9 14 -14 25 -12 25 3 0 -1 18 -9 40 -8 22 -14 41 -14 43 0
1 -2 9 -4 17 -23 74 -57 200 -61 220 -2 14 -5 25 -6 25 -3 0 -11 39 -13 62 -1
13 -5 23 -8 23 -4 0 -10 21 -13 48 -4 26 -10 56 -12 67 -3 11 -7 29 -9 40 -2
11 -7 32 -10 48 -3 15 -7 39 -10 55 -9 42 -36 194 -41 227 -2 17 -7 41 -9 55
-3 14 -7 42 -10 62 -2 21 -7 53 -10 70 -3 18 -8 60 -11 93 -3 33 -7 76 -9 95
-10 94 -16 161 -20 225 -6 85 -11 113 -25 129 -5 7 -7 15 -4 18 6 7 -73 72
-101 83 -42 16 -112 13 -154 -5z m-2356 -7109 c98 -49 125 -124 101 -286 -3
-16 -7 -50 -10 -75 -2 -25 -8 -67 -12 -95 -8 -59 -12 -95 -19 -151 -2 -23 -7
-55 -9 -70 -3 -16 -8 -60 -12 -99 -3 -38 -8 -72 -9 -75 -2 -3 -7 -33 -10 -65
-11 -94 -49 -151 -121 -181 -43 -18 -122 -26 -130 -12 -3 4 -13 8 -23 8 -19 0
-115 79 -107 88 3 2 -1 17 -9 31 -10 21 -15 106 -5 106 0 0 3 23 5 50 4 54 13
131 29 255 11 82 17 125 22 165 4 36 19 146 28 215 9 64 19 100 28 100 5 0 7
4 4 8 -8 13 53 68 94 86 42 19 124 17 165 -3z m-197 -1618 c45 -18 89 -62 107
-107 13 -31 15 -61 10 -164 -4 -70 -8 -173 -8 -229 -1 -57 -5 -103 -9 -103 -4
0 -4 -10 0 -22 7 -20 8 -83 2 -98 -1 -3 -1 -9 0 -15 1 -5 4 -59 5 -120 2 -60
4 -137 5 -171 3 -71 -4 -98 -37 -141 -70 -92 -201 -104 -295 -28 -67 55 -75
109 -72 525 3 476 10 557 57 611 27 31 75 65 102 72 34 9 99 4 133 -10z"/>
<path d="M9426 11108 c-22 -5 -48 -16 -58 -25 -10 -9 -18 -13 -18 -10 0 4 -8
-1 -19 -12 -27 -27 -101 -127 -101 -136 0 -5 -7 -16 -14 -24 -39 -43 -167
-425 -151 -450 3 -5 0 -11 -7 -13 -7 -3 -12 -32 -12 -84 0 -70 3 -84 27 -119
25 -38 74 -76 107 -82 22 -5 103 -5 121 -1 19 4 89 50 89 59 0 3 10 16 23 29
12 14 21 26 20 27 -2 2 -2 5 -2 8 4 15 6 24 13 67 4 26 7 51 8 55 0 5 4 15 9
24 4 9 11 31 14 49 3 18 12 48 20 66 8 19 14 37 15 39 0 3 0 6 1 8 0 1 2 9 4
17 5 25 67 148 84 167 62 68 83 146 58 218 -32 90 -133 144 -231 123z"/>
<path d="M1753 9968 c-18 -6 -33 -15 -33 -19 0 -5 -5 -9 -11 -9 -13 0 -44 -34
-64 -72 -21 -37 -21 -117 -1 -159 9 -19 36 -54 59 -79 24 -25 47 -52 51 -60 4
-8 12 -24 19 -35 22 -36 41 -70 42 -75 0 -3 11 -27 23 -54 12 -27 22 -50 22
-52 0 -1 5 -15 12 -31 6 -15 12 -32 14 -38 15 -62 58 -163 76 -182 48 -52 137
-78 208 -61 34 8 82 45 108 82 21 31 27 52 29 100 1 33 -2 65 -5 71 -4 5 -7
12 -7 15 0 7 -26 92 -35 115 -4 11 -14 36 -21 55 -7 19 -26 64 -43 100 -16 36
-29 68 -28 73 1 4 -1 7 -6 7 -4 0 -14 14 -21 32 -14 32 -60 104 -91 142 -35
44 -123 125 -130 121 -5 -3 -10 0 -12 7 -5 15 -114 20 -155 6z"/>
</g>
</svg>
